<svg id="Layer_1" data-name="Layer 1" xmlns="http://www.w3.org/2000/svg" viewBox="0 0 246.71 376.45"><defs><style>.cls-1{fill:#fcfcfc;}.cls-2{fill:#171818;}.cls-3{fill:#151616;}.cls-4{fill:#131313;}.cls-5{fill:#1f2020;}.cls-6{fill:#202020;}.cls-7{fill:#2e2f2f;}.cls-8{fill:#141414;}.cls-9{fill:#d73c2f;}.cls-10{fill:#2c2c2c;}.cls-11{fill:#cac8c7;}.cls-12{fill:#f2f1f0;}.cls-13{fill:#fff;}.cls-14{font-size:12px;fill:#231f20;font-family:Helvetica-Bold, Helvetica;font-weight:700;}</style></defs><path class="cls-1" d="M141.41,327.49h190v60h-190Zm99.93,41.08c1.93-.81,2,1.09,2.63,1.94,3.81,4.86,12.06,6,17.07,2.37,5.18-3.8,6.45-12.27,2.61-17.46a12,12,0,0,0-13.74-4.22c-5.55,1.8-8.22,5.67-8.53,11.46-.11,2,1.77,4,.11,6H230l10.47-11.77a11.89,11.89,0,0,0-.15-5.64H221.35c.38,1.94-.41,3.59.72,5.48h10.07l-10.81,12.51c.39,1.76-.33,3.44.53,5h19.48Zm-70.88-10.08c-1.13-2.68,2-4.71,1.09-7.43-2.1,0-4.24-.53-6.51.47L161,364.67l-.84,0L156,351.16h-7.26c2.73,7.95,5.36,15.59,8,23.35,2.65-.09,5.1.3,7.43-.25,1.13-3.18,2-6.21,3.3-9.09,1-2.27.6-5.19,3.07-6.77.36,4-.16,8.14,2.5,11.73,3,4.09,7,5.33,11.81,4.57,4.18-.65,7.47-2.37,8.7-6.91-2.22-.63-4.21-.34-6.47-.25-1.46,2.6-3.9,2.36-6.44,1.76-1.12-1.21-2.74-2.07-2.27-4.56H194c.61-7.14-2.21-12-7.74-13.77s-10.79.44-14.25,6.13C171.63,357.65,171.75,358.91,170.46,358.49Zm119,15.85c0-5.53.16-10.53,0-15.52-.29-7-6-10.22-12.28-7.13a24.6,24.6,0,0,0-2.34,1.51c-.66-.61-.16-1.78-1.61-2.25-1.52.29-3.52-.36-5.46.36v23.14c2.36,0,4.45.33,6.74-.33,0-4.18-.1-8.17,0-12.15.13-4.3,1.24-5.19,6.43-5.17,3.3,5.38.33,11.85,1.95,17.54Zm-79.32-23c-2.7-.71-4.49.6-6.56,1.8-1.85-3.71-4.85-2.05-7.48-2V374.4a21.62,21.62,0,0,0,7-.21c0-2.84,0-5.49,0-8.14.09-6.76.89-7.76,7.18-9.09A12.9,12.9,0,0,0,210.18,351.34Zm9,23v-23.2c-2.37-.14-4.46-.49-6.45.25v22.88A22.11,22.11,0,0,0,219.19,374.33Zm77.07-16.19c-1.28-2.77-2.24-4.82-3.27-7-1,.12-1.94-.36-3.06.51a73.66,73.66,0,0,0,5,11c1.21.05,2.2.28,3.32-.77,3.25-7.09,6.64-14.5,10.06-21.95a3.57,3.57,0,0,0-3.4,0C302.12,345.77,299.32,351.69,296.26,358.14Zm-76.81-8.84c-.06-2.43.44-4.4-.42-6.24a16.61,16.61,0,0,0-6.56.26c.16,2-.55,4,.45,6Z" transform="translate(-84.7 -11.04)"/><path class="cls-2" d="M170.46,358.49c1.29.42,1.17-.84,1.5-1.39,3.46-5.69,8.65-8,14.25-6.13s8.35,6.63,7.74,13.77H178.37c-.47,2.49,1.15,3.35,2.27,4.56,2.54.6,5,.84,6.44-1.76,2.26-.09,4.25-.38,6.47.25-1.23,4.54-4.52,6.26-8.7,6.91-4.82.76-8.77-.48-11.81-4.57-2.66-3.59-2.14-7.72-2.5-11.73Zm14.2-2.61a6,6,0,0,0-4.18,0c-.94,1.19-2.6,2.16-2.3,4.26h8.64C187.1,358.06,185.83,357,184.66,355.88Z" transform="translate(-84.7 -11.04)"/><path class="cls-3" d="M241.49,368.71c1.66-2-.22-4-.11-6,.31-5.79,3-9.66,8.53-11.46a12,12,0,0,1,13.74,4.22c3.84,5.19,2.57,13.66-2.61,17.46-5,3.67-13.26,2.49-17.07-2.37-.66-.85-.7-2.75-2.63-1.94Zm8.68-11.49c-3.44,8.61-1.22,12.94,5.91,11.92,2.78-3.64,3.42-8.68,1.34-11.35S252.94,355.61,250.17,357.22Z" transform="translate(-84.7 -11.04)"/><path class="cls-4" d="M289.5,374.34h-6.58c-1.62-5.69,1.35-12.16-1.95-17.54-5.19,0-6.3.87-6.43,5.17-.13,4,0,8,0,12.15-2.29.66-4.38.33-6.74.33V351.31c1.94-.72,3.94-.07,5.46-.36,1.45.47.95,1.64,1.61,2.25a24.6,24.6,0,0,1,2.34-1.51c6.27-3.09,12,.16,12.28,7.13C289.66,363.81,289.5,368.81,289.5,374.34Z" transform="translate(-84.7 -11.04)"/><path class="cls-5" d="M241.34,368.57v5.7H221.86c-.86-1.54-.14-3.22-.53-5l10.81-12.51H222.07c-1.13-1.89-.34-3.54-.72-5.48h18.93a11.89,11.89,0,0,1,.15,5.64L230,368.71h11.53Z" transform="translate(-84.7 -11.04)"/><path class="cls-6" d="M170.54,358.4c-2.47,1.58-2.08,4.5-3.07,6.77-1.26,2.88-2.17,5.91-3.3,9.09-2.33.55-4.78.16-7.43.25-2.67-7.76-5.3-15.4-8-23.35H156l4.15,13.49.84,0L165,351.53c2.27-1,4.41-.51,6.51-.47.89,2.72-2.22,4.75-1.09,7.43Z" transform="translate(-84.7 -11.04)"/><path class="cls-7" d="M210.18,351.34a12.9,12.9,0,0,1,.1,5.62c-6.29,1.33-7.09,2.33-7.18,9.09,0,2.65,0,5.3,0,8.14a21.62,21.62,0,0,1-7,.21V351.14c2.63-.05,5.63-1.71,7.48,2C205.69,351.94,207.48,350.63,210.18,351.34Z" transform="translate(-84.7 -11.04)"/><path class="cls-8" d="M219.19,374.33a22.11,22.11,0,0,1-6.45-.07V351.38c2-.74,4.08-.39,6.45-.25Z" transform="translate(-84.7 -11.04)"/><path class="cls-9" d="M296.26,358.14c3.06-6.45,5.86-12.37,8.63-18.2a3.57,3.57,0,0,1,3.4,0c-3.42,7.45-6.81,14.86-10.06,21.95-1.12,1.05-2.11.82-3.32.77a73.66,73.66,0,0,1-5-11c1.12-.87,2.09-.39,3.06-.51C294,353.32,295,355.37,296.26,358.14Z" transform="translate(-84.7 -11.04)"/><path class="cls-9" d="M296.73,17.57l3-6.37a1.22,1.22,0,0,1,1.19,0l-3.52,7.68c-.39.37-.74.29-1.17.27a27.29,27.29,0,0,1-1.74-3.86c.39-.3.73-.13,1.07-.18Z" transform="translate(-84.7 -11.04)"/><path class="cls-10" d="M219.45,349.3h-6.53c-1-1.94-.29-4-.45-6a16.61,16.61,0,0,1,6.56-.26C219.89,344.9,219.39,346.87,219.45,349.3Z" transform="translate(-84.7 -11.04)"/><path class="cls-11" d="M184.66,355.88c1.17,1.09,2.44,2.18,2.16,4.22h-8.64c-.3-2.1,1.36-3.07,2.3-4.26A6,6,0,0,1,184.66,355.88Z" transform="translate(-84.7 -11.04)"/><path class="cls-12" d="M250.17,357.22c2.77-1.61,5.2-2.07,7.25.57s1.44,7.71-1.34,11.35C249,370.16,246.73,365.83,250.17,357.22Z" transform="translate(-84.7 -11.04)"/><path class="cls-13" d="M143.6,392.51" transform="translate(-84.7 -11.04)"/><path class="cls-13" d="M199.68,426.38" transform="translate(-84.7 -11.04)"/><text x="-84.7" y="-11.04"/><text class="cls-14" transform="translate(168.1 11.4)">verizon</text><text class="cls-14" transform="translate(158.9 27.96)">Unified Ui</text></svg>